<svg version="1.1" xmlns="http://www.w3.org/2000/svg" viewBox="0 0 312.2002868652344 130.2587890625" width="624.4005737304688" height="260.517578125">
  <!-- svg-source:excalidraw -->
  
  <defs>
    <style>
      @font-face {
        font-family: "Virgil";
        src: url("https://excalidraw.com/Virgil.woff2");
      }
      @font-face {
        font-family: "Cascadia";
        src: url("https://excalidraw.com/Cascadia.woff2");
      }
    </style>
  </defs>
  <g transform="translate(65.14871608262001 53.6172629060967) rotate(0 0 3.7723547811676212)" stroke="none" fill="#000000"><path d="M 4.86,0 Q 4.86,0 4.96,1.15 5.06,2.31 5.31,4.55 5.55,6.79 5.58,7.07 5.61,7.36 5.53,8.03 5.45,8.70 5.21,9.34 4.97,9.97 4.58,10.53 4.20,11.09 3.69,11.53 3.19,11.98 2.59,12.30 1.99,12.61 1.33,12.77 0.67,12.94 -0.00,12.94 -0.67,12.94 -1.33,12.77 -1.99,12.61 -2.59,12.30 -3.19,11.98 -3.69,11.53 -4.20,11.08 -4.58,10.53 -4.97,9.97 -5.21,9.34 -5.45,8.70 -5.53,8.03 -5.61,7.36 -5.79,5.26 -5.96,3.16 -5.88,2.45 -5.79,1.73 -5.53,1.06 -5.28,0.39 -4.87,-0.19 -4.46,-0.78 -3.92,-1.26 -3.38,-1.74 -2.75,-2.07 -2.11,-2.41 -1.41,-2.58 -0.71,-2.75 0.00,-2.75 0.71,-2.75 1.41,-2.58 2.11,-2.41 2.75,-2.07 3.38,-1.74 3.92,-1.26 4.46,-0.78 4.87,-0.19 5.28,0.39 5.53,1.06 5.79,1.73 5.88,2.45 5.96,3.16 5.99,3.59 6.02,4.01 5.93,4.73 5.84,5.45 5.59,6.13 5.33,6.81 4.92,7.41 4.50,8.01 3.96,8.49 3.42,8.97 2.77,9.31 2.13,9.64 1.43,9.82 0.72,9.99 -0.00,9.99 -0.72,9.99 -1.43,9.82 -2.13,9.64 -2.77,9.31 -3.42,8.97 -3.96,8.49 -4.50,8.00 -4.92,7.41 -5.33,6.81 -5.59,6.13 -5.84,5.45 -5.93,4.73 -6.02,4.01 -6.01,2.00 -6.01,0 -5.85,-0.96 -5.70,-1.92 -5.24,-2.78 -4.78,-3.64 -4.08,-4.31 -3.37,-4.97 -2.49,-5.38 -1.60,-5.79 -0.64,-5.90 0.32,-6.00 1.27,-5.79 2.22,-5.58 3.06,-5.08 3.89,-4.58 4.52,-3.84 5.15,-3.10 5.51,-2.19 5.87,-1.29 5.92,-0.32 5.98,0.65 5.72,1.58 5.45,2.52 4.91,3.33 4.36,4.13 3.59,4.72 2.81,5.31 1.89,5.62 0.97,5.93 -0.00,5.93 -0.97,5.93 -1.89,5.62 -2.81,5.31 -3.59,4.72 -4.36,4.13 -4.91,3.33 -5.46,2.52 -5.72,1.58 -5.98,0.64 -5.92,-0.32 -5.87,-1.29 -5.51,-2.19 -5.15,-3.10 -4.52,-3.84 -3.89,-4.58 -3.05,-5.08 -2.22,-5.58 -1.27,-5.79 -0.32,-6.00 0.64,-5.90 1.61,-5.79 2.49,-5.38 3.37,-4.97 4.08,-4.30 4.79,-3.63 5.24,-2.77 5.70,-1.91 5.85,-0.95 6.01,0.00 6.01,0.00 6.01,0 6.01,2.00 6.02,4.01 5.93,4.73 5.84,5.45 5.59,6.13 5.33,6.81 4.92,7.41 4.50,8.00 3.96,8.49 3.42,8.97 2.77,9.31 2.13,9.64 1.43,9.82 0.72,9.99 0.00,9.99 -0.72,9.99 -1.43,9.82 -2.13,9.64 -2.77,9.31 -3.42,8.97 -3.96,8.49 -4.50,8.01 -4.92,7.41 -5.33,6.81 -5.59,6.13 -5.84,5.45 -5.93,4.73 -6.02,4.01 -5.99,3.59 -5.96,3.16 -5.88,2.45 -5.79,1.73 -5.53,1.06 -5.28,0.39 -4.87,-0.19 -4.46,-0.78 -3.92,-1.26 -3.38,-1.74 -2.75,-2.07 -2.11,-2.41 -1.41,-2.58 -0.71,-2.75 -0.00,-2.75 0.71,-2.75 1.41,-2.58 2.11,-2.41 2.75,-2.07 3.38,-1.74 3.92,-1.26 4.46,-0.78 4.87,-0.19 5.28,0.39 5.53,1.06 5.79,1.73 5.88,2.45 5.96,3.16 5.79,5.26 5.61,7.36 5.53,8.03 5.45,8.70 5.21,9.34 4.97,9.97 4.58,10.53 4.20,11.08 3.69,11.53 3.19,11.98 2.59,12.30 1.99,12.61 1.33,12.77 0.67,12.94 0.00,12.94 -0.67,12.94 -1.33,12.77 -1.99,12.61 -2.59,12.30 -3.19,11.98 -3.69,11.53 -4.20,11.09 -4.58,10.53 -4.97,9.97 -5.21,9.34 -5.45,8.70 -5.53,8.03 -5.61,7.36 -5.58,7.07 -5.55,6.79 -5.31,4.55 -5.06,2.31 -4.96,1.15 -4.86,0 -4.79,-0.58 -4.72,-1.16 -4.51,-1.71 -4.30,-2.26 -3.97,-2.74 -3.64,-3.22 -3.20,-3.61 -2.76,-4.00 -2.24,-4.27 -1.72,-4.55 -1.15,-4.69 -0.58,-4.83 0.00,-4.83 0.58,-4.83 1.15,-4.69 1.72,-4.55 2.24,-4.27 2.76,-4.00 3.20,-3.61 3.64,-3.22 3.97,-2.74 4.30,-2.26 4.51,-1.71 4.72,-1.16 4.79,-0.58 4.86,0.00 4.86,0.00 L 4.86,0 Z"></path></g><g transform="translate(19.0853271484375 47.063385009765625) rotate(0 73.29156494140625 18.066009521484375)" stroke="none" fill="#000000"><path d="M -1.99,-1.47 Q -1.99,-1.47 -0.91,-2.84 0.17,-4.21 1.41,-5.56 2.65,-6.91 3.78,-8.06 4.91,-9.21 5.92,-10.21 6.94,-11.21 7.92,-12.10 8.91,-12.98 10.36,-14.32 11.80,-15.65 13.42,-16.67 15.04,-17.68 16.32,-18.47 17.60,-19.26 19.65,-20.07 21.70,-20.88 22.82,-21.28 23.94,-21.68 24.96,-22.15 25.98,-22.63 27.08,-23.12 28.17,-23.61 29.19,-24.07 30.21,-24.54 31.92,-25.41 33.64,-26.29 35.19,-27.10 36.75,-27.92 38.67,-28.60 40.59,-29.29 42.29,-29.93 44.00,-30.57 45.08,-30.98 46.17,-31.38 47.56,-31.90 48.95,-32.42 50.33,-33.04 51.71,-33.65 53.02,-34.32 54.33,-34.99 55.69,-35.61 57.04,-36.24 58.24,-36.74 59.45,-37.25 61.42,-38.07 63.38,-38.88 64.42,-39.15 65.46,-39.41 67.54,-39.65 69.61,-39.89 70.78,-39.91 71.95,-39.94 73.24,-39.93 74.52,-39.92 75.96,-39.89 77.41,-39.86 78.90,-39.77 80.40,-39.68 81.74,-39.52 83.08,-39.37 84.29,-39.23 85.51,-39.10 86.91,-38.93 88.32,-38.76 89.75,-38.60 91.18,-38.44 92.42,-38.33 93.67,-38.22 95.47,-38.12 97.28,-38.01 98.74,-37.80 100.19,-37.59 101.69,-36.95 103.20,-36.32 104.52,-35.60 105.83,-34.89 107.40,-34.09 108.96,-33.30 110.79,-32.43 112.63,-31.57 113.97,-30.81 115.32,-30.06 116.57,-29.38 117.82,-28.70 118.77,-28.08 119.71,-27.47 120.85,-26.68 121.99,-25.89 123.49,-24.68 124.99,-23.48 125.83,-22.79 126.67,-22.10 128.36,-20.85 130.05,-19.60 131.15,-18.80 132.25,-18.01 133.45,-17.18 134.65,-16.35 135.89,-15.47 137.13,-14.60 138.30,-13.75 139.47,-12.90 140.54,-12.07 141.62,-11.24 142.59,-10.29 143.55,-9.34 144.33,-8.37 145.10,-7.40 145.73,-6.43 146.36,-5.45 146.89,-4.50 147.43,-3.56 147.91,-2.40 148.40,-1.24 148.75,0.37 149.11,1.98 149.35,3.73 149.58,5.48 149.79,7.05 149.99,8.61 150.20,9.93 150.41,11.25 150.81,12.96 151.21,14.66 151.70,15.87 152.19,17.09 152.81,18.26 153.44,19.43 153.94,20.49 154.44,21.54 155.06,22.51 155.68,23.48 156.50,25.02 157.32,26.57 157.92,27.94 158.51,29.31 158.73,30.44 158.94,31.57 158.98,32.68 159.03,33.79 158.94,35.14 158.85,36.49 158.32,37.95 157.79,39.42 156.99,41.23 156.20,43.04 155.72,44.22 155.25,45.39 154.73,46.64 154.21,47.89 153.85,49.02 153.49,50.14 152.75,51.79 152.01,53.44 150.70,55.37 149.39,57.29 148.45,58.18 147.52,59.07 146.41,59.87 145.31,60.68 143.39,61.52 141.47,62.37 139.33,63.17 137.19,63.97 135.14,64.68 133.09,65.40 131.08,66.02 129.07,66.65 127.08,67.14 125.09,67.63 123.12,67.98 121.15,68.34 119.35,68.59 117.54,68.84 115.82,68.97 114.09,69.10 112.64,69.22 111.19,69.34 110.02,69.51 108.84,69.68 107.71,69.89 106.58,70.11 105.34,70.36 104.10,70.62 102.65,70.85 101.19,71.08 99.74,71.31 98.29,71.54 96.63,71.78 94.97,72.02 92.87,72.23 90.76,72.43 88.44,72.67 86.12,72.91 83.53,73.09 80.94,73.28 78.09,73.44 75.24,73.60 72.32,73.75 69.40,73.89 66.80,74.02 64.20,74.15 62.07,74.28 59.94,74.40 58.18,74.51 56.42,74.63 54.88,74.64 53.34,74.65 51.79,74.51 50.23,74.37 48.59,74.10 46.95,73.83 45.24,73.46 43.52,73.09 41.76,72.70 40.00,72.30 38.26,71.97 36.52,71.63 34.83,71.44 33.13,71.25 31.31,71.14 29.49,71.04 27.65,70.93 25.80,70.83 24.25,70.77 22.69,70.71 21.47,70.70 20.25,70.68 18.40,70.52 16.55,70.37 14.75,69.81 12.95,69.26 11.25,68.30 9.55,67.33 7.83,66.19 6.12,65.05 5.24,64.33 4.37,63.62 3.53,62.87 2.70,62.12 1.89,61.37 1.08,60.61 0.32,59.79 -0.43,58.96 -1.72,57.12 -3.01,55.28 -3.41,54.02 -3.82,52.77 -4.36,50.92 -4.89,49.06 -5.28,47.85 -5.67,46.63 -6.16,45.56 -6.64,44.50 -7.25,43.20 -7.85,41.89 -8.44,40.55 -9.03,39.21 -9.53,37.54 -10.03,35.88 -10.46,34.00 -10.88,32.13 -11.17,30.45 -11.46,28.78 -11.73,27.42 -12.00,26.07 -12.19,24.58 -12.38,23.10 -12.43,21.76 -12.47,20.43 -12.48,19.03 -12.49,17.63 -12.49,16.13 -12.49,14.63 -12.48,13.10 -12.48,11.57 -12.37,9.97 -12.26,8.38 -11.91,6.94 -11.57,5.50 -10.98,4.29 -10.38,3.08 -9.47,2.08 -8.56,1.09 -7.15,0.15 -5.75,-0.78 -4.76,-1.34 -3.76,-1.90 -3.26,-2.88 -2.75,-3.87 0.27,-1.41 3.29,1.03 3.04,1.53 2.79,2.03 2.39,2.42 2.00,2.82 1.49,3.06 0.99,3.31 0.43,3.38 -0.11,3.45 -0.66,3.34 -1.21,3.23 -1.69,2.96 -2.18,2.68 -2.55,2.26 -2.92,1.84 -3.14,1.32 -3.36,0.81 -3.40,0.25 -3.44,-0.30 -3.30,-0.84 -3.16,-1.38 -2.86,-1.85 -2.55,-2.32 -2.12,-2.67 -1.68,-3.02 -1.15,-3.21 -0.63,-3.40 -0.07,-3.41 0.48,-3.42 1.02,-3.25 1.55,-3.08 2.00,-2.75 2.46,-2.42 2.78,-1.97 3.10,-1.51 3.26,-0.98 3.42,-0.44 3.41,0.11 3.39,0.67 3.19,1.19 2.99,1.72 2.64,2.15 2.29,2.58 1.81,2.88 1.34,3.18 0.80,3.31 0.25,3.44 -0.29,3.39 -0.85,3.35 -1.36,3.12 -1.88,2.90 -2.29,2.52 -2.70,2.14 -2.98,1.66 -3.25,1.17 -3.35,0.62 -3.45,0.07 -3.37,-0.48 -3.29,-1.03 -3.29,-1.03 -3.29,-1.03 -0.01,-0.45 3.27,0.11 2.58,1.14 1.89,2.16 1.13,2.95 0.37,3.75 -0.82,4.45 -2.03,5.15 -3.39,6.14 -4.75,7.12 -5.12,8.13 -5.48,9.14 -5.58,10.35 -5.68,11.57 -5.68,13.10 -5.67,14.63 -5.67,16.12 -5.67,17.62 -5.67,18.98 -5.67,20.35 -5.64,21.99 -5.62,23.63 -5.37,25.18 -5.12,26.72 -4.98,27.92 -4.84,29.11 -4.46,30.83 -4.08,32.55 -3.73,34.06 -3.39,35.57 -2.95,36.78 -2.50,37.98 -1.95,39.32 -1.41,40.65 -0.82,42.03 -0.24,43.42 0.17,44.75 0.58,46.08 0.98,47.61 1.37,49.15 1.79,50.81 2.21,52.47 3.06,53.77 3.90,55.07 5.23,56.48 6.56,57.88 8.01,59.19 9.45,60.51 11.01,61.65 12.57,62.78 13.82,63.67 15.07,64.56 16.25,65.14 17.43,65.72 18.99,66.11 20.55,66.51 21.75,66.67 22.95,66.82 24.48,66.97 26.00,67.12 27.83,67.21 29.66,67.30 31.61,67.37 33.57,67.43 35.40,67.65 37.24,67.86 39.03,68.20 40.82,68.53 42.59,68.91 44.36,69.29 46.01,69.66 47.66,70.04 49.19,70.36 50.73,70.68 52.12,70.94 53.52,71.20 54.93,71.36 56.34,71.52 58.04,71.54 59.75,71.55 61.89,71.39 64.02,71.22 66.62,71.03 69.21,70.85 72.10,70.62 75.00,70.40 77.80,70.13 80.59,69.87 83.09,69.54 85.58,69.22 87.86,68.79 90.13,68.36 92.17,67.92 94.21,67.48 95.89,67.17 97.57,66.85 99.03,66.64 100.48,66.42 101.89,66.22 103.30,66.01 104.62,65.82 105.94,65.62 107.20,65.50 108.46,65.37 109.73,65.33 110.99,65.28 112.43,65.26 113.86,65.24 115.45,65.17 117.04,65.10 118.74,64.88 120.43,64.67 122.25,64.28 124.06,63.90 125.87,63.34 127.68,62.78 129.49,62.03 131.31,61.27 133.14,60.31 134.97,59.35 136.88,58.21 138.78,57.07 140.10,56.27 141.41,55.47 142.77,54.28 144.13,53.09 144.96,51.81 145.80,50.52 146.36,49.24 146.93,47.95 147.37,46.63 147.81,45.30 148.33,44.07 148.85,42.84 149.36,41.62 149.87,40.39 150.47,38.89 151.08,37.40 151.67,36.14 152.27,34.88 152.28,33.31 152.30,31.75 151.95,30.66 151.59,29.56 150.85,28.13 150.11,26.69 149.41,25.45 148.71,24.21 148.11,22.73 147.50,21.24 147.10,20.20 146.71,19.16 146.41,18.08 146.10,17.00 145.85,15.61 145.61,14.22 145.44,13.13 145.27,12.05 145.07,10.73 144.87,9.40 144.60,7.90 144.33,6.41 143.98,4.84 143.63,3.27 142.99,1.22 142.36,-0.82 141.49,-2.40 140.63,-3.98 139.45,-5.40 138.27,-6.83 137.28,-7.58 136.28,-8.32 135.14,-9.08 133.99,-9.84 132.74,-10.60 131.50,-11.36 130.17,-12.12 128.84,-12.89 127.68,-13.60 126.53,-14.32 125.46,-15.00 124.40,-15.68 122.69,-16.97 120.98,-18.25 119.50,-19.38 118.02,-20.52 116.92,-21.31 115.81,-22.10 114.72,-22.87 113.63,-23.64 112.37,-24.46 111.11,-25.28 109.63,-26.05 108.14,-26.82 106.29,-27.71 104.44,-28.61 102.92,-29.46 101.39,-30.32 100.43,-30.93 99.46,-31.54 98.18,-31.99 96.90,-32.44 95.02,-32.67 93.15,-32.90 91.91,-33.03 90.67,-33.16 89.22,-33.27 87.77,-33.39 86.34,-33.51 84.90,-33.63 83.66,-33.77 82.42,-33.91 81.30,-34.05 80.17,-34.19 78.80,-34.22 77.42,-34.25 75.99,-34.21 74.56,-34.17 73.31,-34.14 72.06,-34.12 70.99,-34.10 69.92,-34.08 68.28,-33.98 66.65,-33.88 65.09,-33.51 63.52,-33.14 62.50,-32.72 61.48,-32.30 60.40,-31.87 59.31,-31.44 58.11,-30.85 56.91,-30.27 55.55,-29.47 54.18,-28.68 52.70,-27.87 51.23,-27.07 49.81,-26.40 48.39,-25.73 47.26,-25.27 46.14,-24.81 44.35,-24.17 42.55,-23.53 40.92,-23.00 39.28,-22.47 37.78,-21.76 36.28,-21.05 34.43,-20.17 32.58,-19.29 31.56,-18.83 30.53,-18.37 29.48,-17.89 28.42,-17.41 27.19,-16.83 25.95,-16.25 24.76,-15.79 23.56,-15.34 21.91,-14.75 20.25,-14.16 18.90,-13.48 17.55,-12.81 16.32,-12.24 15.09,-11.67 13.56,-10.50 12.03,-9.33 11.10,-8.58 10.16,-7.83 9.16,-6.91 8.16,-5.98 7.12,-4.94 6.08,-3.89 5.03,-2.64 3.98,-1.39 2.98,0.04 1.99,1.47 1.78,1.69 1.58,1.91 1.33,2.07 1.08,2.23 0.79,2.33 0.51,2.42 0.21,2.45 -0.08,2.48 -0.37,2.43 -0.67,2.38 -0.95,2.27 -1.22,2.15 -1.46,1.98 -1.70,1.80 -1.89,1.57 -2.08,1.34 -2.21,1.07 -2.34,0.80 -2.41,0.50 -2.47,0.21 -2.46,-0.08 -2.45,-0.38 -2.37,-0.66 -2.29,-0.95 -2.14,-1.21 -1.99,-1.47 -1.99,-1.47 L -1.99,-1.47 Z"></path></g><g transform="translate(162.25668334960938 42.969512939453125) rotate(0 69.9718017578125 23.280517578125)" stroke="none" fill="#000000"><path d="M -1.15,-2.33 Q -1.15,-2.33 -0.04,-2.90 1.06,-3.46 2.75,-4.45 4.43,-5.45 5.46,-6.11 6.48,-6.78 7.92,-7.60 9.36,-8.42 10.36,-8.92 11.36,-9.41 12.43,-9.99 13.50,-10.56 14.46,-11.17 15.42,-11.77 16.55,-12.42 17.68,-13.07 18.85,-13.75 20.01,-14.43 21.07,-15.06 22.12,-15.70 23.45,-16.47 24.78,-17.25 26.00,-17.72 27.22,-18.20 28.37,-18.60 29.52,-19.00 30.78,-19.41 32.04,-19.82 33.22,-20.15 34.41,-20.48 35.82,-20.93 37.23,-21.38 38.44,-21.91 39.66,-22.44 41.26,-22.85 42.86,-23.25 44.21,-23.44 45.56,-23.64 47.64,-24.37 49.71,-25.11 50.93,-25.45 52.14,-25.79 53.20,-26.03 54.25,-26.26 55.95,-26.64 57.66,-27.02 58.75,-27.10 59.84,-27.19 61.46,-27.27 63.07,-27.36 64.38,-27.47 65.70,-27.59 67.12,-27.61 68.54,-27.64 69.81,-27.66 71.07,-27.67 72.15,-27.76 73.23,-27.86 74.44,-27.96 75.66,-28.07 77.09,-28.03 78.52,-28.00 80.07,-27.62 81.62,-27.25 82.95,-26.91 84.27,-26.56 86.27,-26.30 88.28,-26.03 90.24,-25.90 92.20,-25.76 93.76,-25.46 95.33,-25.15 96.60,-24.60 97.87,-24.05 99.28,-23.32 100.69,-22.60 101.77,-21.79 102.85,-20.98 103.78,-20.18 104.71,-19.39 105.73,-18.39 106.74,-17.39 107.74,-16.23 108.73,-15.07 109.62,-13.78 110.51,-12.48 111.33,-11.52 112.15,-10.55 113.26,-9.00 114.36,-7.46 115.02,-6.61 115.68,-5.76 116.43,-4.82 117.18,-3.88 118.42,-2.56 119.66,-1.23 120.70,-0.27 121.75,0.69 122.80,1.65 123.86,2.62 124.90,3.72 125.94,4.82 127.14,5.79 128.35,6.77 129.50,8.20 130.66,9.64 131.41,10.75 132.15,11.86 133.20,13.58 134.24,15.31 135.10,16.81 135.96,18.30 136.75,19.72 137.54,21.14 138.10,22.06 138.66,22.97 139.23,24.25 139.80,25.52 140.19,26.68 140.58,27.84 140.91,29.39 141.23,30.95 141.43,32.03 141.64,33.10 141.91,34.52 142.19,35.95 142.49,37.49 142.80,39.04 142.92,40.26 143.05,41.49 143.10,42.75 143.15,44.02 143.19,45.78 143.23,47.53 143.28,48.88 143.32,50.23 143.32,51.32 143.33,52.42 143.05,53.69 142.77,54.95 142.23,56.15 141.69,57.35 140.57,58.74 139.45,60.13 138.06,61.20 136.68,62.27 135.57,62.81 134.47,63.35 132.66,63.84 130.84,64.32 129.47,64.62 128.09,64.91 126.48,65.26 124.86,65.61 123.11,66.03 121.36,66.45 119.89,66.96 118.43,67.48 117.24,67.97 116.05,68.46 114.23,69.17 112.40,69.88 110.62,70.30 108.83,70.71 107.38,70.96 105.93,71.21 104.19,71.33 102.45,71.45 100.70,71.61 98.95,71.78 97.10,71.85 95.26,71.93 94.05,72.05 92.85,72.17 90.93,72.28 89.02,72.38 87.76,72.46 86.49,72.54 85.19,72.72 83.88,72.90 82.64,73.12 81.41,73.34 79.67,73.66 77.93,73.98 76.73,74.10 75.53,74.22 74.22,74.28 72.91,74.35 71.69,74.21 70.48,74.07 69.14,73.97 67.81,73.87 66.35,73.66 64.89,73.45 63.69,73.32 62.49,73.19 61.11,72.98 59.72,72.76 57.67,72.45 55.63,72.14 54.31,72.15 52.99,72.15 51.42,72.23 49.86,72.32 48.36,72.36 46.86,72.41 45.76,72.45 44.65,72.50 43.27,72.57 41.88,72.64 40.41,72.45 38.93,72.27 37.55,71.67 36.17,71.07 34.73,70.48 33.30,69.89 32.15,69.23 30.99,68.58 30.03,68.03 29.06,67.49 27.85,66.63 26.64,65.78 24.96,64.80 23.29,63.82 22.05,63.19 20.81,62.56 19.41,62.03 18.01,61.49 16.77,61.06 15.53,60.64 14.28,60.00 13.03,59.36 11.96,58.71 10.88,58.06 9.67,57.14 8.47,56.22 7.79,52.10 7.10,47.97 7.60,47.68 8.10,47.39 8.66,47.28 9.22,47.17 9.79,47.24 10.36,47.31 10.88,47.56 11.40,47.81 11.81,48.22 12.22,48.62 12.47,49.13 12.73,49.64 12.82,50.21 12.90,50.78 12.80,51.34 12.69,51.91 12.41,52.41 12.14,52.91 11.71,53.30 11.29,53.69 10.76,53.92 10.24,54.15 9.67,54.20 9.09,54.25 8.53,54.12 7.98,53.99 7.49,53.68 7.00,53.38 6.64,52.93 6.28,52.49 6.07,51.95 5.87,51.41 5.85,50.84 5.83,50.26 5.99,49.71 6.16,49.16 6.49,48.70 6.82,48.23 7.28,47.89 7.75,47.55 8.30,47.38 8.84,47.20 9.42,47.21 9.99,47.22 10.53,47.42 11.07,47.61 11.52,47.97 11.97,48.32 12.29,48.80 12.60,49.28 12.74,49.84 12.89,50.40 12.84,50.97 12.80,51.54 12.58,52.07 12.36,52.60 11.98,53.03 11.60,53.46 11.60,53.46 11.60,53.46 11.45,51.73 11.30,50.00 12.34,50.70 13.37,51.40 14.40,52.16 15.42,52.91 16.69,53.65 17.95,54.39 19.10,54.81 20.24,55.24 21.86,55.86 23.48,56.49 24.87,57.01 26.25,57.53 28.02,58.45 29.79,59.38 30.71,60.11 31.63,60.84 32.65,61.60 33.66,62.37 34.68,63.02 35.70,63.68 36.76,64.23 37.82,64.79 39.23,65.53 40.65,66.28 41.81,66.45 42.96,66.62 44.74,66.60 46.52,66.58 47.84,66.47 49.16,66.35 50.86,66.05 52.57,65.75 54.43,65.55 56.29,65.34 57.55,65.43 58.81,65.53 60.32,65.81 61.82,66.09 63.09,66.31 64.35,66.53 65.63,66.67 66.91,66.80 68.20,67.10 69.48,67.40 70.96,67.61 72.44,67.81 73.51,67.91 74.58,68.00 75.85,68.02 77.12,68.03 78.71,67.80 80.29,67.58 81.57,67.31 82.84,67.04 84.37,66.72 85.89,66.40 87.37,66.21 88.84,66.02 90.46,65.92 92.09,65.83 93.62,65.75 95.14,65.67 96.75,65.64 98.36,65.61 100.31,65.46 102.27,65.31 103.68,65.28 105.10,65.26 106.58,65.10 108.07,64.95 109.35,64.77 110.63,64.59 112.32,64.06 114.01,63.54 115.23,63.03 116.46,62.51 118.06,61.81 119.66,61.11 121.40,60.42 123.14,59.73 124.75,59.14 126.37,58.55 127.74,58.09 129.11,57.64 130.75,57.15 132.39,56.67 133.35,56.07 134.31,55.47 135.08,54.48 135.85,53.49 136.19,52.20 136.54,50.90 136.57,49.81 136.60,48.72 136.60,47.52 136.60,46.32 136.47,44.37 136.33,42.43 135.98,40.34 135.63,38.24 135.35,36.68 135.07,35.13 134.85,33.64 134.63,32.14 134.42,30.99 134.22,29.83 133.87,28.69 133.53,27.54 133.02,26.41 132.52,25.28 131.90,24.06 131.28,22.83 130.48,21.36 129.68,19.88 128.85,18.38 128.02,16.88 126.96,15.28 125.91,13.68 124.31,12.20 122.72,10.72 121.88,9.99 121.04,9.27 119.78,7.92 118.51,6.57 117.31,5.49 116.11,4.40 114.93,3.16 113.75,1.92 112.99,1.14 112.23,0.36 111.36,-0.57 110.49,-1.52 109.75,-2.38 109.01,-3.24 107.85,-4.69 106.69,-6.14 105.78,-7.21 104.87,-8.29 104.07,-9.42 103.27,-10.56 102.27,-11.69 101.27,-12.83 100.34,-13.78 99.41,-14.74 98.45,-15.62 97.49,-16.50 96.43,-17.06 95.38,-17.62 94.06,-18.27 92.74,-18.92 91.40,-19.08 90.07,-19.23 88.91,-19.25 87.74,-19.26 86.51,-19.32 85.28,-19.38 83.11,-19.69 80.94,-19.99 79.89,-20.29 78.83,-20.58 77.33,-20.83 75.82,-21.07 74.50,-20.99 73.17,-20.90 71.58,-20.90 69.98,-20.89 68.57,-20.89 67.16,-20.89 66.06,-20.87 64.96,-20.86 63.48,-20.74 62.00,-20.62 60.45,-20.54 58.90,-20.46 57.35,-20.10 55.80,-19.74 54.04,-19.22 52.28,-18.70 51.22,-18.23 50.17,-17.77 48.06,-17.12 45.95,-16.47 44.88,-16.36 43.81,-16.25 42.75,-15.98 41.70,-15.70 40.53,-15.25 39.35,-14.79 38.16,-14.42 36.97,-14.05 35.56,-13.71 34.15,-13.37 33.10,-13.07 32.06,-12.77 30.90,-12.50 29.74,-12.22 28.60,-11.91 27.45,-11.60 26.40,-11.06 25.36,-10.53 24.35,-9.86 23.33,-9.20 22.20,-8.42 21.07,-7.64 19.99,-6.91 18.91,-6.18 17.23,-5.25 15.56,-4.31 14.08,-3.61 12.61,-2.91 11.46,-2.62 10.31,-2.34 9.33,-1.80 8.36,-1.26 6.92,-0.55 5.48,0.14 4.44,0.70 3.39,1.25 2.27,1.79 1.15,2.33 0.85,2.44 0.56,2.54 0.24,2.57 -0.06,2.60 -0.37,2.56 -0.68,2.51 -0.97,2.39 -1.26,2.27 -1.52,2.09 -1.77,1.90 -1.98,1.66 -2.18,1.42 -2.32,1.14 -2.46,0.86 -2.52,0.55 -2.59,0.24 -2.58,-0.06 -2.58,-0.37 -2.49,-0.68 -2.41,-0.98 -2.26,-1.26 -2.10,-1.53 -1.89,-1.76 -1.67,-1.99 -1.41,-2.16 -1.15,-2.33 -1.15,-2.33 L -1.15,-2.33 Z"></path></g><g transform="translate(206.21096801757812 55.273773193359375) rotate(0 0.210662841796875 4.0890655517578125)" stroke="none" fill="#000000"><path d="M 4.88,-0.41 Q 4.88,-0.41 5.10,0.98 5.33,2.39 5.51,5.28 5.68,8.17 5.55,9.01 5.41,9.85 5.01,10.60 4.61,11.36 3.99,11.94 3.38,12.53 2.60,12.89 1.83,13.25 0.98,13.34 0.14,13.43 -0.69,13.25 -1.52,13.07 -2.25,12.63 -2.98,12.19 -3.53,11.54 -4.08,10.89 -4.40,10.10 -4.72,9.31 -4.76,8.46 -4.81,7.61 -4.58,6.79 -4.36,5.97 -3.88,5.26 -3.40,4.55 -2.72,4.04 -2.04,3.52 -1.24,3.25 -0.43,2.98 0.41,2.98 1.26,2.97 2.07,3.25 2.88,3.52 3.56,4.03 4.24,4.55 4.72,5.25 5.20,5.96 5.42,6.78 5.65,7.60 5.61,8.45 5.56,9.30 5.25,10.09 4.93,10.89 4.38,11.54 3.83,12.19 3.10,12.63 2.37,13.07 1.54,13.25 0.70,13.43 -0.13,13.34 -0.98,13.25 -1.75,12.89 -2.53,12.53 -3.15,11.95 -3.76,11.36 -4.16,10.61 -4.56,9.86 -4.70,9.02 -4.84,8.18 -4.84,8.18 -4.84,8.18 -4.84,5.72 -4.84,3.26 -4.86,1.84 -4.88,0.41 -4.86,-0.17 -4.84,-0.76 -4.68,-1.33 -4.52,-1.90 -4.22,-2.41 -3.93,-2.92 -3.52,-3.35 -3.11,-3.78 -2.62,-4.10 -2.12,-4.42 -1.56,-4.61 -1.00,-4.79 -0.41,-4.85 0.17,-4.90 0.75,-4.80 1.34,-4.71 1.88,-4.48 2.43,-4.25 2.90,-3.90 3.37,-3.55 3.75,-3.09 4.13,-2.64 4.38,-2.10 4.64,-1.57 4.76,-0.99 4.88,-0.41 4.88,-0.41 L 4.88,-0.41 Z"></path></g><g transform="translate(261.8081359863281 52.948089599609375) rotate(0 0.56329345703125 3.19268798828125)" stroke="none" fill="#000000"><path d="M 4.72,0 Q 4.72,0 4.81,0.78 4.90,1.56 5.73,3.53 6.56,5.50 6.60,5.87 6.64,6.24 6.56,6.90 6.48,7.56 6.24,8.18 6.01,8.81 5.63,9.35 5.25,9.90 4.76,10.34 4.26,10.78 3.67,11.09 3.08,11.40 2.43,11.56 1.79,11.72 1.12,11.72 0.46,11.72 -0.18,11.56 -0.82,11.40 -1.41,11.09 -2.00,10.79 -2.50,10.34 -3.00,9.90 -3.38,9.36 -3.75,8.81 -3.99,8.19 -4.23,7.57 -4.31,6.91 -4.39,6.25 -4.80,3.59 -5.21,0.93 -5.22,0.08 -5.23,-0.77 -4.97,-1.58 -4.71,-2.40 -4.20,-3.09 -3.70,-3.78 -2.99,-4.27 -2.29,-4.76 -1.47,-5.01 -0.65,-5.25 0.20,-5.22 1.05,-5.18 1.85,-4.88 2.65,-4.57 3.31,-4.03 3.98,-3.49 4.43,-2.76 4.88,-2.03 5.08,-1.20 5.28,-0.36 5.20,0.48 5.12,1.33 4.77,2.11 4.42,2.90 3.84,3.53 3.26,4.16 2.51,4.57 1.76,4.98 0.92,5.14 0.08,5.29 -0.76,5.16 -1.61,5.04 -2.37,4.65 -3.13,4.26 -3.73,3.65 -4.33,3.03 -4.70,2.26 -5.07,1.49 -5.18,0.64 -5.29,-0.20 -5.11,-1.04 -4.94,-1.88 -4.51,-2.62 -4.08,-3.36 -3.44,-3.92 -2.79,-4.49 -2.00,-4.82 -1.21,-5.15 -0.36,-5.21 0.49,-5.27 1.31,-5.05 2.14,-4.83 2.86,-4.36 3.58,-3.89 4.10,-3.22 4.63,-2.55 4.92,-1.74 5.21,-0.93 5.21,-0.93 5.21,-0.93 5.92,2.65 6.64,6.24 6.56,6.90 6.48,7.56 6.24,8.18 6.01,8.81 5.63,9.35 5.25,9.90 4.76,10.34 4.26,10.78 3.67,11.09 3.08,11.40 2.43,11.56 1.79,11.72 1.12,11.72 0.46,11.72 -0.18,11.56 -0.82,11.40 -1.41,11.10 -2.00,10.79 -2.50,10.35 -3.00,9.90 -3.38,9.36 -3.75,8.81 -3.99,8.19 -4.23,7.57 -4.31,6.91 -4.39,6.25 -4.48,6.05 -4.58,5.85 -4.74,3.71 -4.90,1.56 -4.81,0.78 -4.72,0 -4.66,-0.56 -4.59,-1.13 -4.39,-1.66 -4.18,-2.19 -3.86,-2.66 -3.54,-3.13 -3.11,-3.51 -2.68,-3.89 -2.18,-4.15 -1.67,-4.42 -1.12,-4.55 -0.56,-4.69 0.00,-4.69 0.57,-4.69 1.12,-4.55 1.67,-4.42 2.18,-4.15 2.68,-3.89 3.11,-3.51 3.54,-3.13 3.86,-2.66 4.18,-2.19 4.39,-1.66 4.59,-1.13 4.66,-0.56 4.72,0.00 4.72,0.00 L 4.72,0 Z"></path></g><g transform="translate(119.38723754882812 49.802215576171875) rotate(0 0 5.4072723388671875)" stroke="none" fill="#000000"><path d="M 4.90,0 Q 4.90,0 4.98,2.17 5.05,4.34 5.15,7.58 5.25,10.81 5.11,11.65 4.97,12.49 4.58,13.24 4.18,13.99 3.56,14.57 2.94,15.16 2.17,15.52 1.40,15.87 0.56,15.96 -0.28,16.06 -1.11,15.87 -1.94,15.69 -2.67,15.25 -3.40,14.81 -3.95,14.17 -4.50,13.52 -4.81,12.73 -5.13,11.94 -5.17,11.09 -5.22,10.24 -4.99,9.42 -4.76,8.60 -4.29,7.90 -3.81,7.20 -3.13,6.68 -2.46,6.17 -1.65,5.90 -0.84,5.62 0.00,5.62 0.85,5.62 1.65,5.90 2.46,6.17 3.13,6.68 3.81,7.20 4.29,7.90 4.76,8.60 4.99,9.42 5.22,10.24 5.17,11.09 5.13,11.94 4.81,12.73 4.50,13.52 3.95,14.17 3.40,14.81 2.67,15.25 1.94,15.69 1.11,15.87 0.28,16.06 -0.56,15.96 -1.40,15.87 -2.17,15.51 -2.94,15.16 -3.56,14.57 -4.18,13.99 -4.58,13.24 -4.97,12.49 -5.11,11.65 -5.25,10.81 -5.25,10.81 -5.25,10.81 -5.15,7.58 -5.05,4.34 -4.98,2.17 -4.90,0 -4.83,-0.58 -4.76,-1.17 -4.55,-1.72 -4.34,-2.27 -4.00,-2.76 -3.67,-3.25 -3.22,-3.64 -2.78,-4.03 -2.26,-4.31 -1.73,-4.58 -1.16,-4.72 -0.59,-4.86 0.00,-4.86 0.59,-4.86 1.16,-4.72 1.73,-4.58 2.26,-4.31 2.78,-4.03 3.22,-3.64 3.67,-3.25 4.00,-2.76 4.34,-2.27 4.55,-1.72 4.76,-1.17 4.83,-0.58 4.90,0.00 4.90,0.00 L 4.90,0 Z"></path></g><g transform="translate(196.69436645507812 25.232879638671875) rotate(0 -30.69573974609375 -6.126495361328125)" stroke="none" fill="#000000"><path d="M -1.62,1.71 Q -1.62,1.71 -2.77,0.60 -3.92,-0.50 -5.06,-1.19 -6.20,-1.87 -7.55,-2.46 -8.90,-3.06 -10.42,-3.46 -11.94,-3.87 -13.60,-4.26 -15.26,-4.66 -16.68,-4.93 -18.09,-5.21 -19.24,-5.41 -20.39,-5.61 -22.27,-6.06 -24.15,-6.52 -25.74,-6.89 -27.33,-7.27 -28.87,-7.56 -30.42,-7.84 -31.78,-8.03 -33.14,-8.21 -34.44,-8.39 -35.74,-8.56 -37.47,-8.80 -39.20,-9.03 -41.01,-9.08 -42.81,-9.13 -44.45,-9.07 -46.08,-9.01 -47.97,-8.77 -49.86,-8.53 -51.39,-8.13 -52.91,-7.72 -54.12,-7.03 -55.33,-6.33 -58.26,-4.67 -61.19,-3.01 -61.72,-3.06 -62.26,-3.12 -62.75,-3.34 -63.24,-3.56 -63.63,-3.93 -64.02,-4.30 -64.28,-4.77 -64.53,-5.25 -64.62,-5.78 -64.71,-6.31 -64.63,-6.84 -64.55,-7.37 -64.30,-7.85 -64.05,-8.32 -63.66,-8.70 -63.27,-9.07 -62.78,-9.30 -62.30,-9.53 -61.76,-9.59 -61.23,-9.65 -60.70,-9.54 -60.17,-9.43 -59.71,-9.15 -59.25,-8.88 -58.90,-8.47 -58.55,-8.06 -58.34,-7.56 -58.14,-7.06 -58.11,-6.52 -58.08,-5.99 -58.22,-5.47 -58.36,-4.95 -58.66,-4.50 -58.96,-4.05 -59.38,-3.73 -59.81,-3.40 -60.32,-3.22 -60.83,-3.05 -61.37,-3.04 -61.91,-3.04 -62.42,-3.21 -62.93,-3.38 -63.36,-3.70 -63.79,-4.03 -64.09,-4.47 -64.40,-4.91 -64.54,-5.43 -64.69,-5.95 -64.67,-6.49 -64.64,-7.02 -64.44,-7.52 -64.25,-8.03 -63.90,-8.44 -63.55,-8.85 -63.10,-9.13 -62.64,-9.41 -62.11,-9.53 -61.59,-9.65 -61.59,-9.65 -61.59,-9.65 -60.99,-10.22 -60.39,-10.79 -59.46,-11.35 -58.53,-11.91 -57.56,-12.41 -56.60,-12.91 -54.68,-13.60 -52.76,-14.28 -50.69,-14.63 -48.61,-14.98 -46.56,-15.16 -44.50,-15.34 -42.63,-15.29 -40.77,-15.25 -39.65,-15.20 -38.54,-15.15 -36.63,-14.86 -34.73,-14.57 -33.43,-14.30 -32.13,-14.02 -30.62,-13.69 -29.11,-13.36 -27.54,-12.93 -25.98,-12.50 -24.30,-11.92 -22.62,-11.35 -21.00,-10.74 -19.39,-10.14 -18.28,-9.84 -17.16,-9.54 -15.74,-9.21 -14.33,-8.88 -12.59,-8.52 -10.85,-8.16 -8.97,-7.70 -7.09,-7.25 -5.43,-6.54 -3.77,-5.82 -2.25,-4.86 -0.72,-3.90 0.45,-2.81 1.62,-1.71 1.81,-1.49 1.99,-1.27 2.11,-1.01 2.24,-0.76 2.29,-0.48 2.35,-0.20 2.34,0.08 2.33,0.36 2.26,0.64 2.18,0.91 2.04,1.16 1.90,1.41 1.70,1.61 1.50,1.82 1.26,1.97 1.02,2.13 0.75,2.22 0.48,2.31 0.20,2.34 -0.08,2.36 -0.36,2.32 -0.64,2.27 -0.90,2.16 -1.17,2.05 -1.40,1.88 -1.62,1.71 -1.62,1.71 L -1.62,1.71 Z"></path></g></svg>