<?xml version="1.0" standalone="no"?>
<!DOCTYPE svg PUBLIC "-//W3C//DTD SVG 20010904//EN"
 "http://www.w3.org/TR/2001/REC-SVG-20010904/DTD/svg10.dtd">
<svg version="1.0" xmlns="http://www.w3.org/2000/svg"
 width="184.000000pt" height="184.000000pt" viewBox="0 0 184.000000 184.000000"
 preserveAspectRatio="xMidYMid meet">
<metadata>
Created by potrace 1.14, written by Peter Selinger 2001-2017
</metadata>
<g transform="translate(0.000000,184.000000) scale(0.100000,-0.100000)"
fill="#000000" stroke="none">
<path d="M860 1500 c-25 -4 -67 -16 -95 -29 -27 -13 -93 -40 -146 -61 -53 -21
-118 -49 -145 -63 -27 -14 -74 -35 -104 -48 -34 -15 -81 -50 -129 -96 -41 -39
-79 -70 -83 -67 -4 3 -8 1 -8 -3 0 -5 -14 -17 -30 -26 -46 -28 -60 -64 -60
-160 0 -110 13 -174 59 -299 45 -118 90 -178 168 -221 43 -23 66 -28 158 -32
60 -3 138 -13 174 -21 53 -13 100 -15 233 -9 92 3 177 8 190 10 13 2 52 6 88
10 36 3 83 10 105 15 22 4 68 11 102 14 148 15 305 73 345 127 37 51 88 183
88 229 0 27 -13 66 -39 118 -25 50 -43 102 -50 149 -20 129 -32 145 -204 271
-173 127 -261 169 -379 182 -131 14 -186 16 -238 10z m230 -65 c78 -9 171 -53
285 -134 44 -32 98 -68 120 -81 90 -53 116 -95 139 -222 8 -46 28 -114 45
-150 31 -66 31 -66 15 -114 -9 -27 -29 -76 -44 -109 -24 -50 -38 -66 -83 -93
-77 -46 -147 -71 -220 -77 -148 -12 -183 -17 -246 -29 -165 -34 -342 -43 -441
-21 -80 17 -107 21 -214 30 -85 7 -122 24 -185 84 -42 41 -52 58 -84 157 -41
123 -53 198 -49 291 3 62 4 63 47 93 25 17 45 37 45 44 0 14 52 69 95 101 26
18 208 100 340 153 22 9 60 27 84 41 83 47 178 57 351 36z"/>
<path d="M1166 1109 c-24 -19 -26 -27 -26 -90 0 -78 20 -112 60 -102 36 9 47
38 43 106 -5 76 -7 83 -31 96 -16 8 -26 6 -46 -10z"/>
<path d="M632 1092 c-40 -6 -56 -45 -46 -110 7 -45 14 -59 33 -69 18 -8 30 -9
45 -1 31 16 36 28 36 86 0 78 -17 102 -68 94z"/>
</g>
</svg>
